<svg width="16" height="14" viewBox="0 0 16 14" fill="none" xmlns="http://www.w3.org/2000/svg">
<path d="M14.6865 10.6123C15.0967 11.4326 15.6982 12.0889 15.6982 12.0889C15.8896 12.2803 15.917 12.5537 15.835 12.7725C15.7256 13.0186 15.5068 13.1553 15.2607 13.1553C13.7842 13.1553 12.6084 12.6084 11.8154 12.1162C11.2959 12.2256 10.749 12.2803 10.2021 12.2803C7.82324 12.2803 5.82715 11.1865 4.95215 9.62793C4.70605 9.57324 4.43262 9.5459 4.18652 9.49121C3.39355 9.9834 2.21777 10.5576 0.768555 10.5576C0.495117 10.5576 0.276367 10.3936 0.166992 10.1748C0.0849609 9.92871 0.139648 9.65527 0.303711 9.49121C0.303711 9.46387 0.905273 8.80762 1.34277 7.9873C0.577148 7.22168 0.139648 6.29199 0.139648 5.28027C0.139648 2.87402 2.68262 0.905273 5.82715 0.905273C8.17871 0.905273 10.2021 2.02637 11.0498 3.6123C13.7842 3.91309 15.8896 5.71777 15.8896 7.90527C15.8896 8.94434 15.4248 9.87402 14.6865 10.6123ZM3.94043 8.06934L4.4873 8.20605C4.9248 8.31543 5.3623 8.34277 5.82715 8.34277C8.17871 8.34277 10.2021 6.94824 10.2021 5.28027C10.2021 3.63965 8.17871 2.21777 5.82715 2.21777C3.44824 2.21777 1.45215 3.63965 1.45215 5.28027C1.45215 6.07324 1.88965 6.6748 2.24512 7.03027L2.92871 7.71387L2.51855 8.56152C2.43652 8.69824 2.35449 8.83496 2.2998 8.97168C2.68262 8.83496 3.09277 8.64355 3.47559 8.37012L3.94043 8.06934ZM13.7568 9.65527C14.1123 9.2998 14.5771 8.69824 14.5771 7.90527C14.5771 6.56543 13.2373 5.41699 11.4873 5.00684C11.4873 5.11621 11.5146 5.19824 11.5146 5.28027C11.5146 7.49512 9.38184 9.32715 6.59277 9.62793C7.38574 10.4209 8.72559 10.9678 10.2021 10.9678C10.6396 10.9678 11.1045 10.9404 11.542 10.8311L12.0615 10.6943L12.5537 10.9951C12.9365 11.2412 13.3193 11.46 13.7295 11.5967C13.6475 11.46 13.5654 11.3232 13.5107 11.1865L13.0732 10.3389L13.7568 9.65527Z" fill="#223E89"/>
</svg>
