<svg width="14" height="14" viewBox="0 0 14 14" fill="none" xmlns="http://www.w3.org/2000/svg">
<path d="M7.20129 2.87402C8.65051 2.87402 9.82629 4.0498 9.82629 5.49902C9.82629 6.94824 8.65051 8.12402 7.20129 8.12402C5.75208 8.12402 4.57629 6.94824 4.57629 5.49902C4.57629 4.0498 5.75208 2.87402 7.20129 2.87402ZM7.20129 6.81152C7.91223 6.81152 8.51379 6.2373 8.51379 5.49902C8.51379 4.78809 7.91223 4.18652 7.20129 4.18652C6.46301 4.18652 5.88879 4.78809 5.88879 5.49902C5.88879 6.2373 6.46301 6.81152 7.20129 6.81152ZM7.20129 0.249023C10.9474 0.249023 13.9825 3.28418 13.9825 7.03027C13.9825 10.7764 10.9474 13.8115 7.20129 13.8115C3.4552 13.8115 0.420044 10.7764 0.420044 7.03027C0.420044 3.28418 3.4552 0.249023 7.20129 0.249023ZM7.20129 12.499C8.54114 12.499 9.79895 12.0068 10.756 11.1865C10.3458 10.5576 9.63489 10.1475 8.84192 10.1201C8.2677 10.2842 7.72083 10.3662 7.20129 10.3662C6.65442 10.3662 6.10754 10.2842 5.53333 10.1201C4.74036 10.1201 4.02942 10.5576 3.61926 11.1865C4.57629 12.0068 5.83411 12.499 7.20129 12.499ZM11.631 10.2021C12.2872 9.32715 12.67 8.2334 12.67 7.03027C12.67 4.02246 10.2091 1.56152 7.20129 1.56152C4.16614 1.56152 1.73254 4.02246 1.73254 7.03027C1.73254 8.2334 2.08801 9.32715 2.74426 10.2021C3.40051 9.35449 4.43958 8.78027 5.61536 8.78027C5.88879 8.78027 6.32629 9.05371 7.20129 9.05371C8.04895 9.05371 8.48645 8.78027 8.75989 8.78027C9.93567 8.78027 10.9747 9.35449 11.631 10.2021Z" fill="#223E89"/>
</svg>
