<svg width="41" height="31" viewBox="0 0 41 31" fill="none" xmlns="http://www.w3.org/2000/svg">
<g opacity="0.2">
<mask id="path-1-inside-1_32_530" fill="white">
<path d="M0 0.803162H41V31H10C4.47715 31 0 26.5228 0 21V0.803162Z"/>
</mask>
<path d="M0 0.803162H41H0ZM82 72H51C22.8335 72 0 49.1665 0 21V0.803162C0 0.803162 4.47715 0.803162 10 0.803162H0L82 72ZM0 31V0.803162V31ZM82 0.803162V72L10 31C7.34783 31 4.8043 29.9464 2.92893 28.0711C1.05357 26.1957 -2.3186e-07 23.6522 0 21L0 10.8032V0.803162H82Z" fill="url(#paint0_linear_32_530)" mask="url(#path-1-inside-1_32_530)"/>
</g>
<defs>
<linearGradient id="paint0_linear_32_530" x1="41" y1="31" x2="61.3913" y2="3.31357" gradientUnits="userSpaceOnUse">
<stop stop-color="#F5EAD3"/>
<stop stop-opacity="0"/>
</linearGradient>
</defs>
</svg>
