<svg width="16" height="18" viewBox="0 0 16 18" fill="none" xmlns="http://www.w3.org/2000/svg">
<path d="M5.1514 6.20323V5.35249C5.17074 4.98512 5.46076 4.6951 5.80879 4.6951L13.3301 4.67577C13.6975 4.6951 13.9875 4.98512 13.9875 5.33315V12.8738C13.9875 13.2218 13.6975 13.5118 13.3301 13.5312H12.4794C12.112 13.5118 11.822 13.2218 11.8026 12.8545L11.9186 8.2914L6.3695 13.8405C6.09881 14.1112 5.71212 14.1112 5.44143 13.8405L4.82271 13.2218C4.57135 12.9705 4.55202 12.5644 4.82271 12.2937L10.3718 6.74461L5.82813 6.87995C5.46076 6.86062 5.1514 6.58993 5.1514 6.20323Z" fill="#223E89"/>
</svg>
