<svg width="64" height="63" viewBox="0 0 64 63" fill="none" xmlns="http://www.w3.org/2000/svg">
<circle cx="32" cy="31.5" r="31.5" fill="url(#paint0_linear_40_656)"/>
<path d="M32.5 20C39.1274 20 44.5 25.3726 44.5 32C44.5 38.6274 39.1274 44 32.5 44C25.8726 44 20.5 38.6274 20.5 32C20.5 25.3726 25.8726 20 32.5 20Z" stroke="white" stroke-width="2" stroke-linecap="round" stroke-linejoin="round"/>
<path d="M21.5 36H43.5" stroke="white" stroke-width="2" stroke-linecap="round" stroke-linejoin="round"/>
<path d="M21.5 28H43.5" stroke="white" stroke-width="2" stroke-linecap="round" stroke-linejoin="round"/>
<path d="M32.5 20C34.7091 20 36.5 25.3726 36.5 32C36.5 38.6274 34.7091 44 32.5 44C30.2909 44 28.5 38.6274 28.5 32C28.5 25.3726 30.2909 20 32.5 20Z" stroke="white" stroke-width="2" stroke-linecap="round" stroke-linejoin="round"/>
<defs>
<linearGradient id="paint0_linear_40_656" x1="-1.28608" y1="13.65" x2="77.9684" y2="19.2782" gradientUnits="userSpaceOnUse">
<stop stop-color="#223E89"/>
<stop offset="0.507189" stop-color="#496FD5"/>
<stop offset="1" stop-color="#223E89"/>
</linearGradient>
</defs>
</svg>
