<svg width="64" height="64" viewBox="0 0 64 64" fill="none" xmlns="http://www.w3.org/2000/svg">
<circle cx="32" cy="31.9595" r="31.5" fill="url(#paint0_linear_40_683)"/>
<path d="M28.7431 29.7882H21.1442C20.8563 29.7882 20.5801 29.6738 20.3765 29.4702C20.173 29.2666 20.0586 28.9905 20.0586 28.7026V21.1036C20.0586 20.8157 20.173 20.5396 20.3765 20.336C20.5801 20.1324 20.8563 20.0181 21.1442 20.0181H28.7431C29.031 20.0181 29.3072 20.1324 29.5107 20.336C29.7143 20.5396 29.8287 20.8157 29.8287 21.1036V28.7026C29.8287 28.9905 29.7143 29.2666 29.5107 29.4702C29.3072 29.6738 29.031 29.7882 28.7431 29.7882Z" fill="white"/>
<path d="M28.7431 43.9005H21.1442C20.8563 43.9005 20.5801 43.7861 20.3765 43.5825C20.173 43.3789 20.0586 43.1028 20.0586 42.8149V35.2159C20.0586 34.928 20.173 34.6519 20.3765 34.4483C20.5801 34.2447 20.8563 34.1304 21.1442 34.1304H28.7431C29.031 34.1304 29.3072 34.2447 29.5107 34.4483C29.7143 34.6519 29.8287 34.928 29.8287 35.2159V42.8149C29.8287 43.1028 29.7143 43.3789 29.5107 43.5825C29.3072 43.7861 29.031 43.9005 28.7431 43.9005Z" fill="white"/>
<path d="M33.0854 21.1038H43.9411V23.2749H33.0854V21.1038Z" fill="white"/>
<path d="M43.9411 35.2161H33.0854V37.3872H43.9411V35.2161Z" fill="white"/>
<path d="M43.9411 40.6438H33.0854V42.8149H43.9411V40.6438Z" fill="white"/>
<path d="M43.9411 26.5315H33.0854V28.7026H43.9411V26.5315Z" fill="white"/>
<defs>
<linearGradient id="paint0_linear_40_683" x1="-1.28608" y1="14.1095" x2="77.9684" y2="19.7377" gradientUnits="userSpaceOnUse">
<stop stop-color="#223E89"/>
<stop offset="0.507189" stop-color="#496FD5"/>
<stop offset="1" stop-color="#223E89"/>
</linearGradient>
</defs>
</svg>
