<svg width="18" height="19" viewBox="0 0 18 19" fill="none" xmlns="http://www.w3.org/2000/svg">
<path d="M11.9651 5.99414H5.74247C6.26981 2.86523 7.46513 0.650391 8.87138 0.650391C10.2425 0.650391 11.4729 2.86523 11.9651 5.99414ZM5.49638 9.36914C5.49638 8.5957 5.53153 7.85742 5.60184 7.11914H12.1058C12.1761 7.85742 12.2112 8.5957 12.2112 9.36914C12.2112 10.1777 12.1761 10.916 12.1058 11.6191H5.60184C5.53153 10.916 5.49638 10.1777 5.49638 9.36914ZM16.887 5.99414H13.0901C12.7737 4.02539 12.2112 2.23242 11.3323 1.03711C13.8636 1.77539 15.9026 3.63867 16.887 5.99414ZM6.37528 1.03711C5.49638 2.23242 4.93388 4.02539 4.61747 5.99414H0.820594C1.80497 3.63867 3.84403 1.77539 6.37528 1.03711ZM17.2737 7.11914C17.4495 7.85742 17.555 8.5957 17.555 9.36914C17.555 10.1777 17.4495 10.916 17.2737 11.6191H13.2308C13.3011 10.8809 13.3714 10.1426 13.3714 9.36914C13.3714 8.63086 13.3011 7.85742 13.2308 7.11914H17.2737ZM4.37138 9.36914C4.37138 10.1426 4.40653 10.8809 4.47684 11.6191H0.433875C0.258094 10.916 0.152625 10.1777 0.152625 9.36914C0.152625 8.5957 0.258094 7.85742 0.433875 7.11914H4.47684C4.40653 7.85742 4.37138 8.63086 4.37138 9.36914ZM5.74247 12.7441H11.9651C11.4729 15.9082 10.2425 18.0879 8.87138 18.0879C7.46513 18.0879 6.26981 15.9082 5.74247 12.7441ZM11.3323 17.7363C12.2112 16.541 12.8089 14.748 13.0901 12.7441H16.887C15.9026 15.1348 13.8636 16.998 11.3323 17.7363ZM0.820594 12.7441H4.61747C4.93388 14.748 5.49638 16.541 6.37528 17.7363C3.84403 16.998 1.80497 15.1348 0.820594 12.7441Z" fill="#223E89"/>
</svg>
