<svg width="16" height="17" viewBox="0 0 16 17" fill="none" xmlns="http://www.w3.org/2000/svg">
<path d="M14.2547 0.464355C15.1687 0.464355 15.9422 1.23779 15.9422 2.15186V14.5269C15.9422 15.4761 15.1687 16.2144 14.2547 16.2144H1.87969C0.930469 16.2144 0.192187 15.4761 0.192187 14.5269V2.15186C0.192187 1.23779 0.930469 0.464355 1.87969 0.464355H14.2547ZM3.49687 13.9644C9.12187 13.9644 13.6922 9.4292 13.6922 3.76904C13.6922 3.52295 13.5164 3.31201 13.2703 3.27686L10.9852 2.74951C10.95 2.74951 10.9148 2.71436 10.8797 2.71436C10.6336 2.71436 10.4578 2.85498 10.3875 3.06592L9.33281 5.52686C9.29766 5.56201 9.2625 5.63232 9.2625 5.70264C9.2625 5.87842 9.36797 6.01904 9.47344 6.12451L10.8094 7.21436C10.0008 8.90186 8.62969 10.3081 6.90703 11.1167L5.81719 9.78076C5.71172 9.67529 5.57109 9.60498 5.39531 9.60498C5.325 9.60498 5.25469 9.60498 5.21953 9.64014L2.75859 10.6948C2.54766 10.7651 2.44219 10.9409 2.44219 11.1519C2.44219 11.2222 2.44219 11.2573 2.44219 11.2925L2.96953 13.5776C3.00469 13.8237 3.21562 13.9644 3.49687 13.9644Z" fill="#223E89"/>
</svg>
