<svg width="19" height="14" viewBox="0 0 19 14" fill="none" xmlns="http://www.w3.org/2000/svg">
<path d="M17.8016 4.57422C17.9422 4.46875 18.1531 4.57422 18.1531 4.75V11.9219C18.1531 12.8711 17.3797 13.6094 16.4656 13.6094H1.84063C0.891407 13.6094 0.153126 12.8711 0.153126 11.9219V4.75C0.153126 4.57422 0.328907 4.46875 0.469532 4.57422C1.27813 5.20703 2.29766 5.98047 5.88359 8.58203C6.62188 9.10938 7.8875 10.2695 9.15313 10.2695C10.3836 10.2695 11.6844 9.10938 12.3875 8.58203C15.9734 5.98047 16.993 5.20703 17.8016 4.57422ZM9.15313 9.10938C8.30938 9.14453 7.14922 8.08984 6.55156 7.66797C1.87578 4.29297 1.52422 3.97656 0.469532 3.13281C0.258595 2.99219 0.153126 2.74609 0.153126 2.46484V1.79688C0.153126 0.882812 0.891407 0.109375 1.84063 0.109375H16.4656C17.3797 0.109375 18.1531 0.882812 18.1531 1.79688V2.46484C18.1531 2.74609 18.0125 2.99219 17.8016 3.13281C16.7469 3.97656 16.3953 4.29297 11.7195 7.66797C11.1219 8.08984 9.96172 9.14453 9.15313 9.10938Z" fill="#223E89"/>
</svg>
