<svg width="22" height="23" viewBox="0 0 22 23" fill="none" xmlns="http://www.w3.org/2000/svg">
<path d="M18.3168 1.68262C19.645 0.901367 21.3247 2.03418 21.0903 3.59668L18.7856 18.7139C18.6684 19.2998 18.3559 19.7686 17.8481 20.0811C17.5356 20.2373 17.2231 20.3154 16.9106 20.3154C16.6762 20.3154 16.4418 20.2764 16.2075 20.1592L11.8325 18.3623L10.1137 20.667C9.05903 22.1123 6.75435 21.3701 6.75435 19.5342V16.2529L2.26216 14.417C0.816846 13.8311 0.699658 11.8389 2.06685 11.0576L18.3168 1.68262ZM8.62935 19.5342L10.0356 17.6201L8.62935 17.0342V19.5342ZM16.9106 18.4404L19.2543 3.28418L3.00435 12.6592L7.18403 14.417L15.4653 7.22949C16.0122 6.72168 16.7934 7.4248 16.4028 8.0498L10.895 15.9404L16.9106 18.4404Z" fill="white"/>
</svg>
