<svg width="36" height="36" viewBox="0 0 36 36" fill="none" xmlns="http://www.w3.org/2000/svg">
<path d="M33.9549 23.4941L32.8611 17.4785C32.8382 17.3529 32.772 17.2394 32.6742 17.1575C32.5763 17.0756 32.4528 17.0305 32.3252 17.03H24.1221V12.1082C24.1221 11.9631 24.0644 11.824 23.9619 11.7215C23.8594 11.6189 23.7202 11.5613 23.5752 11.5613H1.7002C1.55515 11.5613 1.41606 11.6189 1.31349 11.7215C1.21094 11.824 1.15332 11.9631 1.15332 12.1082V30.7019C1.15462 31.1366 1.32789 31.5532 1.63528 31.8606C1.94268 32.168 2.35922 32.3412 2.79395 32.3425H4.87754C5.15649 32.8266 5.55457 33.2313 6.03396 33.5181C6.51341 33.8049 7.0582 33.9645 7.61656 33.9814C8.17498 33.9984 8.72847 33.8723 9.22443 33.6152C9.72039 33.358 10.1424 32.9783 10.4502 32.5121C10.758 32.9783 11.18 33.358 11.676 33.6152C12.1719 33.8723 12.7254 33.9984 13.2838 33.9814C13.8422 33.9645 14.387 33.8049 14.8664 33.5181C15.3458 33.2313 15.7439 32.8266 16.0229 32.3425H25.6588C25.946 32.8413 26.3596 33.2556 26.8579 33.5436C27.3561 33.8317 27.9215 33.9834 28.4971 33.9834C29.0726 33.9834 29.638 33.8317 30.1363 33.5436C30.6346 33.2556 31.0481 32.8413 31.3354 32.3425H32.3252C32.7599 32.3412 33.1765 32.168 33.4839 31.8606C33.7913 31.5532 33.9645 31.1366 33.9658 30.7019V23.5925C33.9649 23.5595 33.9612 23.5265 33.9549 23.4941ZM32.7627 23.0457H27.4033V19.7644H32.1666L32.7627 23.0457ZM2.24707 12.655H23.0283V13.7488H2.24707V12.655ZM2.24707 14.8425H5.52832V22.4988C5.52832 22.6438 5.58596 22.7829 5.6885 22.8855C5.79104 22.988 5.93016 23.0457 6.0752 23.0457C6.22023 23.0457 6.35935 22.988 6.46189 22.8855C6.56443 22.7829 6.62207 22.6438 6.62207 22.4988V14.8425H9.90332V22.4988C9.90332 22.6438 9.96096 22.7829 10.0635 22.8855C10.166 22.988 10.3052 23.0457 10.4502 23.0457C10.5952 23.0457 10.7344 22.988 10.8369 22.8855C10.9394 22.7829 10.9971 22.6438 10.9971 22.4988V14.8425H14.2783V22.4988C14.2783 22.6438 14.336 22.7829 14.4385 22.8855C14.541 22.988 14.6802 23.0457 14.8252 23.0457C14.9702 23.0457 15.1094 22.988 15.2119 22.8855C15.3144 22.7829 15.3721 22.6438 15.3721 22.4988V14.8425H18.6533V22.4988C18.6533 22.6438 18.711 22.7829 18.8135 22.8855C18.916 22.988 19.0552 23.0457 19.2002 23.0457C19.3452 23.0457 19.4844 22.988 19.5869 22.8855C19.6894 22.7829 19.7471 22.6438 19.7471 22.4988V14.8425H23.0283V23.5925H21.9346V15.9363C21.9346 15.7912 21.8769 15.6521 21.7744 15.5496C21.6719 15.447 21.5327 15.3894 21.3877 15.3894C21.2427 15.3894 21.1035 15.447 21.001 15.5496C20.8985 15.6521 20.8408 15.7912 20.8408 15.9363V23.5925H17.5596V15.9363C17.5596 15.7912 17.5019 15.6521 17.3994 15.5496C17.2969 15.447 17.1577 15.3894 17.0127 15.3894C16.8677 15.3894 16.7285 15.447 16.626 15.5496C16.5235 15.6521 16.4658 15.7912 16.4658 15.9363V23.5925H13.1846V15.9363C13.1846 15.7912 13.1269 15.6521 13.0244 15.5496C12.9219 15.447 12.7827 15.3894 12.6377 15.3894C12.4927 15.3894 12.3535 15.447 12.251 15.5496C12.1485 15.6521 12.0908 15.7912 12.0908 15.9363V23.5925H8.80957V15.9363C8.80957 15.7912 8.75193 15.6521 8.64939 15.5496C8.54685 15.447 8.40773 15.3894 8.2627 15.3894C8.11766 15.3894 7.97854 15.447 7.876 15.5496C7.77346 15.6521 7.71582 15.7912 7.71582 15.9363V23.5925H4.43457V15.9363C4.43457 15.7912 4.37695 15.6521 4.2744 15.5496C4.17184 15.447 4.03274 15.3894 3.8877 15.3894C3.74265 15.3894 3.60356 15.447 3.50099 15.5496C3.39844 15.6521 3.34082 15.7912 3.34082 15.9363V23.5925H2.24707V14.8425ZM2.24707 24.6863H23.0283V25.78H2.24707V24.6863ZM4.48379 31.2488H2.79395C2.6489 31.2488 2.50981 31.1911 2.40724 31.0886C2.30469 30.9861 2.24707 30.8469 2.24707 30.7019V30.155H4.48379C4.41816 30.5167 4.41816 30.8871 4.48379 31.2488ZM7.71582 32.8894C7.28319 32.8894 6.86023 32.7611 6.5005 32.5208C6.14077 32.2804 5.86038 31.9387 5.69484 31.539C5.52925 31.1393 5.48595 30.6995 5.57037 30.2751C5.65476 29.8508 5.86312 29.461 6.16904 29.1551C6.47496 28.8492 6.86472 28.6408 7.28904 28.5565C7.71341 28.472 8.15321 28.5153 8.55292 28.6809C8.95263 28.8465 9.29432 29.1268 9.53467 29.4866C9.77502 29.8463 9.90332 30.2693 9.90332 30.7019C9.90332 31.2821 9.67287 31.8385 9.2626 32.2487C8.85239 32.659 8.296 32.8894 7.71582 32.8894ZM13.1846 32.8894C12.7519 32.8894 12.329 32.7611 11.9693 32.5208C11.6095 32.2804 11.3291 31.9387 11.1636 31.539C10.998 31.1393 10.9547 30.6995 11.0391 30.2751C11.1235 29.8508 11.3319 29.461 11.6378 29.1551C11.9437 28.8492 12.3335 28.6408 12.7578 28.5565C13.1822 28.472 13.622 28.5153 14.0217 28.6809C14.4214 28.8465 14.7631 29.1268 15.0034 29.4866C15.2438 29.8463 15.3721 30.2693 15.3721 30.7019C15.3721 31.2821 15.1416 31.8385 14.7314 32.2487C14.3211 32.659 13.7647 32.8894 13.1846 32.8894ZM13.1846 27.4207C12.6428 27.421 12.1095 27.5556 11.6324 27.8123C11.1552 28.069 10.7491 28.4399 10.4502 28.8917C10.1424 28.4255 9.72039 28.0458 9.22443 27.7886C8.72847 27.5315 8.17498 27.4054 7.61656 27.4224C7.0582 27.4394 6.51341 27.5989 6.03396 27.8857C5.55457 28.1726 5.15649 28.5772 4.87754 29.0613H2.24707V26.8738H23.0283V29.0613H16.0229C15.7351 28.563 15.3215 28.149 14.8233 27.8611C14.3251 27.5731 13.76 27.4213 13.1846 27.4207ZM25.265 31.2488H16.4166C16.4822 30.8871 16.4822 30.5167 16.4166 30.155H25.265C25.1994 30.5167 25.1994 30.8871 25.265 31.2488ZM28.4971 32.8894C28.0644 32.8894 27.6415 32.7611 27.2817 32.5208C26.922 32.2804 26.6416 31.9387 26.4761 31.539C26.3105 31.1393 26.2672 30.6995 26.3516 30.2751C26.436 29.8508 26.6444 29.461 26.9503 29.1551C27.2562 28.8492 27.646 28.6408 28.0703 28.5565C28.4947 28.472 28.9345 28.5153 29.3342 28.6809C29.7339 28.8465 30.0756 29.1268 30.3159 29.4866C30.5563 29.8463 30.6846 30.2693 30.6846 30.7019C30.6846 31.2821 30.4541 31.8385 30.0439 32.2487C29.6336 32.659 29.0772 32.8894 28.4971 32.8894ZM32.8721 30.7019C32.8721 30.8469 32.8144 30.9861 32.7119 31.0886C32.6094 31.1911 32.4702 31.2488 32.3252 31.2488H31.7291C31.7947 30.8871 31.7947 30.5167 31.7291 30.155H32.8721V30.7019ZM32.8721 27.4207H32.5986C32.5261 27.4207 32.4566 27.3918 32.4053 27.3406C32.354 27.2893 32.3252 27.2197 32.3252 27.1472C32.3252 27.0747 32.354 27.0051 32.4053 26.9538C32.4566 26.9026 32.5261 26.8738 32.5986 26.8738H32.8721V27.4207ZM32.8721 25.78H32.5986C32.2361 25.78 31.8883 25.9241 31.6319 26.1805C31.3755 26.4369 31.2314 26.7846 31.2314 27.1472C31.2314 27.5098 31.3755 27.8576 31.6319 28.114C31.8883 28.3704 32.2361 28.5144 32.5986 28.5144H32.8721V29.0613H31.3354C31.0481 28.5625 30.6346 28.1482 30.1363 27.8602C29.638 27.5721 29.0726 27.4204 28.4971 27.4204C27.9215 27.4204 27.3561 27.5721 26.8579 27.8602C26.3596 28.1482 25.946 28.5625 25.6588 29.0613H24.1221V18.1238H31.8713L31.9697 18.6707H26.8564C26.7114 18.6707 26.5723 18.7283 26.4697 18.8308C26.3672 18.9334 26.3096 19.0725 26.3096 19.2175V23.5925C26.3096 23.7376 26.3672 23.8767 26.4697 23.9792C26.5723 24.0818 26.7114 24.1394 26.8564 24.1394H32.8721V25.78Z" fill="white"/>
<path d="M28.4971 31.7957C29.1011 31.7957 29.5908 31.306 29.5908 30.7019C29.5908 30.0978 29.1011 29.6082 28.4971 29.6082C27.893 29.6082 27.4033 30.0978 27.4033 30.7019C27.4033 31.306 27.893 31.7957 28.4971 31.7957Z" fill="white"/>
<path d="M7.71582 31.7957C8.3199 31.7957 8.80957 31.306 8.80957 30.7019C8.80957 30.0978 8.3199 29.6082 7.71582 29.6082C7.11174 29.6082 6.62207 30.0978 6.62207 30.7019C6.62207 31.306 7.11174 31.7957 7.71582 31.7957Z" fill="white"/>
<path d="M13.1846 31.7957C13.7886 31.7957 14.2783 31.306 14.2783 30.7019C14.2783 30.0978 13.7886 29.6082 13.1846 29.6082C12.5805 29.6082 12.0908 30.0978 12.0908 30.7019C12.0908 31.306 12.5805 31.7957 13.1846 31.7957Z" fill="white"/>
<path d="M26.8564 25.78H27.4033C27.5484 25.78 27.6875 25.7224 27.79 25.6198C27.8926 25.5173 27.9502 25.3782 27.9502 25.2332C27.9502 25.0881 27.8926 24.949 27.79 24.8465C27.6875 24.7439 27.5484 24.6863 27.4033 24.6863H26.8564C26.7114 24.6863 26.5723 24.7439 26.4698 24.8465C26.3672 24.949 26.3096 25.0881 26.3096 25.2332C26.3096 25.3782 26.3672 25.5173 26.4698 25.6198C26.5723 25.7224 26.7114 25.78 26.8564 25.78Z" fill="white"/>
</svg>
