<svg width="30" height="30" viewBox="0 0 30 30" fill="none" xmlns="http://www.w3.org/2000/svg">
<g clip-path="url(#clip0_27_185)">
<path d="M24.9541 23.6394H21.1696L21.2231 22.7332H25.4072C25.5274 22.7332 25.6427 22.6854 25.7276 22.6004C25.8126 22.5155 25.8604 22.4002 25.8604 22.28V20.4675C25.8604 20.3474 25.8126 20.2321 25.7276 20.1471C25.6427 20.0622 25.5274 20.0144 25.4072 20.0144H21.383L21.7564 13.6707H22.2354C22.3555 13.6707 22.4708 13.6229 22.5558 13.5379C22.6407 13.453 22.6885 13.3377 22.6885 13.2175V11.405C22.6885 11.2849 22.6407 11.1696 22.5558 11.0846C22.4708 10.9997 22.3555 10.9519 22.2354 10.9519H19.4998C19.4225 9.83731 19.0554 8.76222 18.435 7.83305L17.7041 6.73784V5.3694L18.4006 5.09073C18.7551 6.09087 19.484 6.91429 20.4337 7.38762L22.0328 8.18784C22.1252 8.23397 22.2306 8.24716 22.3316 8.22518C22.4325 8.2032 22.5229 8.14738 22.5877 8.06704C22.6526 7.98665 22.6881 7.88651 22.6883 7.78325C22.6885 7.67993 22.6534 7.5797 22.5888 7.49909L22.1919 7.00065C21.517 6.15675 21.0833 5.14583 20.9367 4.07528L21.9503 3.66973C22.0345 3.63611 22.1066 3.57803 22.1575 3.50299C22.2083 3.42795 22.2354 3.3394 22.2354 3.24878V1.43628C22.2354 1.3161 22.1876 1.20085 22.1026 1.11587C22.0177 1.0309 21.9024 0.983154 21.7822 0.983154H12.2666C12.1464 0.983154 12.0312 1.0309 11.9462 1.11587C11.8612 1.20085 11.8135 1.3161 11.8135 1.43628V4.60815C11.8135 4.70923 11.8473 4.80739 11.9095 4.88703C11.9718 4.96668 12.0589 5.02323 12.1569 5.04769L13.626 5.41472V6.59284C12.9457 6.92371 12.3725 7.43951 11.9718 8.08109C11.5711 8.72267 11.3592 9.46411 11.3604 10.2206V10.9519H8.92163L5.7339 4.57689C5.55016 4.20841 5.22916 3.92674 4.83988 3.79245C4.45067 3.65815 4.02427 3.68194 3.65239 3.85871C3.28051 4.03548 2.99284 4.35111 2.85122 4.73774C2.70961 5.1244 2.72535 5.55115 2.89507 5.9263L5.21462 10.9519H2.29785C2.17767 10.9519 2.06242 10.9997 1.97744 11.0846C1.89247 11.1696 1.84473 11.2849 1.84473 11.405V13.2175C1.84473 13.3377 1.89247 13.453 1.97744 13.5379C2.06242 13.6229 2.17767 13.6707 2.29785 13.6707H2.7768L3.55165 26.8412C3.58788 27.4457 3.85341 28.0136 4.29404 28.4291C4.73467 28.8446 5.31725 29.0763 5.92285 29.0769H26.7666C26.8868 29.0769 27.002 29.0291 27.087 28.9442C27.172 28.8592 27.2197 28.7439 27.2197 28.6238V25.905C27.219 25.3044 26.9801 24.7285 26.5554 24.3038C26.1306 23.8791 25.5548 23.6401 24.9541 23.6394ZM26.2301 25.4519H16.4281C16.5215 25.1878 16.6942 24.959 16.9226 24.7967C17.151 24.6345 17.4239 24.5468 17.7041 24.5457H24.9541C25.2343 24.5468 25.5072 24.6345 25.7356 24.7967C25.964 24.959 26.1367 25.1878 26.2301 25.4519ZM19.0635 27.2644V28.1707H18.1572V26.3582H20.876V28.1707H19.9697V27.2644H19.0635ZM16.3447 26.3582H17.251V28.1707H16.3447V26.3582ZM21.7822 26.3582H22.6885V28.1707H21.7822V26.3582ZM20.262 23.6394H18.2406C18.334 23.3753 18.5067 23.1465 18.7351 22.9842C18.9635 22.822 19.2364 22.7343 19.5166 22.7332H20.3155L20.262 23.6394ZM24.9541 21.8269H19.5166C18.9878 21.8279 18.476 22.0137 18.0698 22.3524C17.6636 22.691 17.3887 23.1611 17.2927 23.6811C16.948 23.7462 16.6233 23.8911 16.3447 24.1043V24.0925C16.3458 23.2516 16.6803 22.4455 17.2749 21.8509C17.8695 21.2562 18.6757 20.9217 19.5166 20.9207H24.9541V21.8269ZM21.7822 12.7644H15.1734L14.9854 12.5764V11.8582H21.7822V12.7644ZM12.2666 14.1238V19.5613C12.2666 19.6814 12.2188 19.7967 12.1339 19.8817C12.0489 19.9666 11.9336 20.0144 11.8135 20.0144C11.6933 20.0144 11.578 19.9666 11.4931 19.8817C11.4081 19.7967 11.3604 19.6814 11.3604 19.5613V14.1238H10.4541V18.655C10.4541 18.7752 10.4063 18.8905 10.3214 18.9754C10.2364 19.0604 10.1211 19.1082 10.001 19.1082C9.88081 19.1082 9.76553 19.0604 9.68057 18.9754C9.59561 18.8905 9.54785 18.7752 9.54785 18.655V14.1238H8.6416V17.7488C8.6416 17.8689 8.59384 17.9842 8.50888 18.0692C8.42392 18.1541 8.30865 18.2019 8.18848 18.2019C8.06831 18.2019 7.95303 18.1541 7.86807 18.0692C7.78311 17.9842 7.73535 17.8689 7.73535 17.7488V11.8582H14.0791V12.7644C14.0791 12.8846 14.1269 12.9998 14.2119 13.0848L17.1024 15.9757C17.1976 16.071 17.2512 16.2003 17.2512 16.335C17.2512 16.4698 17.1976 16.5991 17.1024 16.6944C17.0071 16.7896 16.8778 16.8432 16.743 16.8432C16.6083 16.8432 16.479 16.7896 16.3837 16.6944L14.8526 15.1632C14.7892 15.0999 14.7085 15.0568 14.6207 15.0393C14.5329 15.0218 14.4418 15.0308 14.359 15.065C14.2763 15.0992 14.2055 15.1572 14.1557 15.2316C14.1059 15.3061 14.0792 15.3936 14.0791 15.4832V18.655C14.0791 18.7752 14.0313 18.8905 13.9464 18.9754C13.8614 19.0604 13.7461 19.1082 13.626 19.1082C13.5058 19.1082 13.3905 19.0604 13.3056 18.9754C13.2206 18.8905 13.1729 18.7752 13.1729 18.655V14.1238H12.2666ZM16.7979 6.42065H14.5322V5.5144H16.7979V6.42065ZM20.8157 6.56339C20.0755 6.18784 19.5107 5.53865 19.2411 4.75361L20.0753 4.41965C20.2015 5.17035 20.4517 5.8948 20.8157 6.56339ZM12.7197 1.8894H21.3291V2.94201L17.1635 4.60815H14.1339L12.7197 4.25426V1.8894ZM12.2666 10.2201C12.2647 9.60427 12.4442 9.00152 12.7826 8.48699C13.1211 7.97252 13.6035 7.56901 14.1697 7.3269H17.009L17.6814 8.33601C18.2023 9.11634 18.5151 10.0167 18.5904 10.9519H12.2666V10.2201ZM3.7184 5.54612C3.67169 5.44539 3.65113 5.33456 3.65863 5.22377C3.66613 5.11303 3.70143 5.00593 3.76128 4.91243C3.82113 4.81893 3.90359 4.74203 4.00104 4.68885C4.09849 4.63566 4.20777 4.60791 4.31879 4.60815C4.44441 4.60773 4.56765 4.64254 4.67449 4.70862C4.78134 4.77469 4.86752 4.8694 4.92326 4.98198L7.90845 10.9519H6.21285L3.7184 5.54612ZM2.75098 11.8582H6.8291V12.7644H2.75098V11.8582ZM4.45609 26.7877L3.68441 13.6707H6.8291V17.7488C6.8291 17.9705 6.88339 18.1889 6.98715 18.3849C7.09096 18.5809 7.24108 18.7485 7.42455 18.8732C7.60798 18.9978 7.81909 19.0756 8.03953 19.1C8.25998 19.1242 8.48301 19.0942 8.68918 19.0125C8.73948 19.1971 8.82815 19.3689 8.94936 19.5168C9.07062 19.6648 9.22174 19.7854 9.39279 19.8709C9.56385 19.9565 9.75103 20.005 9.94212 20.0132C10.1332 20.0214 10.3239 19.9893 10.5017 19.9188C10.5799 20.2068 10.7508 20.461 10.9878 20.6423C11.2249 20.8235 11.515 20.9217 11.8135 20.9217C12.1119 20.9217 12.402 20.8235 12.6391 20.6423C12.8761 20.461 13.047 20.2068 13.1253 19.9188C13.2846 19.9821 13.4545 20.0145 13.626 20.0144C13.9865 20.0144 14.3323 19.8712 14.5872 19.6162C14.8421 19.3613 14.9854 19.0155 14.9854 18.655V16.577L15.743 17.3346C16.0082 17.5998 16.3679 17.7489 16.743 17.7489C17.1181 17.7489 17.4779 17.5998 17.7431 17.3346C18.0083 17.0694 18.1573 16.7097 18.1573 16.3346C18.1573 15.9595 18.0083 15.5997 17.7431 15.3345L16.0796 13.6707H20.8488L20.4754 20.0144H19.5166C18.4354 20.0156 17.3988 20.4456 16.6343 21.2102C15.8697 21.9747 15.4397 23.0113 15.4385 24.0925V28.1707H5.92285C5.54825 28.1702 5.18797 28.0268 4.91542 27.7699C4.64286 27.5129 4.47858 27.1616 4.45609 26.7877ZM25.4072 28.1707V27.2644H24.501V28.1707H23.5947V26.3582H26.3135V28.1707H25.4072Z" fill="white"/>
</g>
<defs>
<clipPath id="clip0_27_185">
<rect width="29" height="29" fill="white" transform="translate(0.0322266 0.530029)"/>
</clipPath>
</defs>
</svg>
