<svg width="31" height="31" viewBox="0 0 31 31" fill="none" xmlns="http://www.w3.org/2000/svg">
<g clip-path="url(#clip0_27_142)">
<path d="M28.5201 14.0925H27.1139V8.46753C27.1139 7.17519 26.0625 6.12378 24.7701 6.12378H18.2076C17.9484 6.12378 17.7389 6.33378 17.7389 6.59253V21.5925H16.3326V18.3113C16.3326 18.0525 16.1231 17.8425 15.8639 17.8425H15.225C16.1826 16.6824 16.8014 14.5444 16.8014 11.9832C16.8014 8.108 15.3905 5.18628 13.5201 5.18628H13.0514V4.24878C13.0514 3.47347 12.4205 2.84253 11.6451 2.84253H8.36389C7.58858 2.84253 6.95764 3.47347 6.95764 4.24878V5.18628H4.14514C2.27483 5.18628 0.863892 8.108 0.863892 11.9832C0.863892 14.5444 1.48264 16.6824 2.4403 17.8425H1.33264C1.07342 17.8425 0.863892 18.0525 0.863892 18.3113V22.0613C0.863892 23.3536 1.9153 24.405 3.20764 24.405H3.24514C3.47389 25.9927 4.83936 27.2175 6.48889 27.2175C7.68327 27.2175 8.72717 26.5739 9.30139 25.6177C9.87561 26.5739 10.9195 27.2175 12.1139 27.2175C13.7634 27.2175 15.1289 25.9927 15.3576 24.405H15.8639H19.6514C19.8801 25.9927 21.2456 27.2175 22.8951 27.2175C24.5447 27.2175 25.9101 25.9927 26.1389 24.405H28.5201C29.8125 24.405 30.8639 23.3536 30.8639 22.0613V19.2488V16.4363C30.8639 15.1439 29.8125 14.0925 28.5201 14.0925ZM15.8639 11.9832C15.8639 15.436 14.6287 17.8425 13.5201 17.8425H5.84999C6.80764 16.6824 7.42639 14.5444 7.42639 11.9832C7.42639 9.4219 6.80764 7.28394 5.84999 6.12378H7.42639H12.5826H13.5201C14.6287 6.12378 15.8639 8.53034 15.8639 11.9832ZM7.89514 4.24878C7.89514 3.9905 8.10514 3.78003 8.36389 3.78003H11.6451C11.9039 3.78003 12.1139 3.9905 12.1139 4.24878V5.18628H7.89514V4.24878ZM1.80139 11.9832C1.80139 8.53034 3.03655 6.12378 4.14514 6.12378C5.25374 6.12378 6.48889 8.53034 6.48889 11.9832C6.48889 15.436 5.25374 17.8425 4.14514 17.8425C3.03655 17.8425 1.80139 15.436 1.80139 11.9832ZM6.48889 26.28C5.19655 26.28 4.14514 25.2286 4.14514 23.9363C4.14514 22.6439 5.19655 21.5925 6.48889 21.5925C7.78124 21.5925 8.83264 22.6439 8.83264 23.9363C8.83264 25.2286 7.78124 26.28 6.48889 26.28ZM12.1139 26.28C10.8215 26.28 9.77014 25.2286 9.77014 23.9363C9.77014 22.6439 10.8215 21.5925 12.1139 21.5925C13.4062 21.5925 14.4576 22.6439 14.4576 23.9363C14.4576 25.2286 13.4062 26.28 12.1139 26.28ZM15.3951 23.4675H15.3576C15.1289 21.8799 13.7634 20.655 12.1139 20.655C10.9195 20.655 9.87561 21.2986 9.30139 22.2549C8.72717 21.2986 7.68327 20.655 6.48889 20.655C4.83936 20.655 3.47389 21.8799 3.24514 23.4675H3.20764C2.43233 23.4675 1.80139 22.8366 1.80139 22.0613V18.78H15.3951V23.4675ZM17.7389 22.53V23.4675H16.3326V22.53H17.7389ZM22.8951 26.28C21.6028 26.28 20.5514 25.2286 20.5514 23.9363C20.5514 22.6439 21.6028 21.5925 22.8951 21.5925C24.1875 21.5925 25.2389 22.6439 25.2389 23.9363C25.2389 25.2286 24.1875 26.28 22.8951 26.28ZM28.5201 23.4675H26.1389C25.9101 21.8799 24.5447 20.655 22.8951 20.655C21.2456 20.655 19.8801 21.8799 19.6514 23.4675H18.6764V16.905H19.6139V15.9675H18.6764V7.06128H24.7701C25.5455 7.06128 26.1764 7.69222 26.1764 8.46753V14.5613C26.1764 14.82 26.3859 15.03 26.6451 15.03H28.5201C29.2955 15.03 29.9264 15.661 29.9264 16.4363V16.905H28.9889V17.8425H29.9264V18.78H28.9889C27.9548 18.78 27.1139 19.621 27.1139 20.655C27.1139 21.6891 27.9548 22.53 28.9889 22.53H29.8401C29.6461 23.0742 29.1305 23.4675 28.5201 23.4675ZM29.9264 21.5925H28.9889C28.4719 21.5925 28.0514 21.1721 28.0514 20.655C28.0514 20.138 28.4719 19.7175 28.9889 19.7175H29.9264V21.5925Z" fill="white"/>
<path d="M20.0826 13.155H24.7701C25.0294 13.155 25.2389 12.945 25.2389 12.6863V8.46753C25.2389 8.20878 25.0294 7.99878 24.7701 7.99878H20.0826C19.8234 7.99878 19.6139 8.20878 19.6139 8.46753V12.6863C19.6139 12.945 19.8234 13.155 20.0826 13.155ZM20.5514 8.93628H24.3014V12.2175H20.5514V8.93628Z" fill="white"/>
<path d="M21.4889 14.0925H19.6139V15.03H21.4889V14.0925Z" fill="white"/>
<path d="M10.845 8.10278L9.18795 9.76028C8.65639 10.2914 8.36389 10.9973 8.36389 11.7487C8.36389 12.5001 8.65639 13.2061 9.18795 13.7376C9.62014 14.1703 10.1695 14.4412 10.7639 14.5279C10.8431 14.8617 11.0081 15.1697 11.257 15.4181C11.6109 15.7725 12.082 15.9675 12.5826 15.9675C13.0833 15.9675 13.5544 15.7725 13.9083 15.4181C14.2626 15.0642 14.4576 14.5931 14.4576 14.0925C14.4576 13.5918 14.2626 13.1208 13.9083 12.7668L13.8155 12.674C14.1722 11.662 13.9331 10.5281 13.1648 9.76028L11.5078 8.10278C11.332 7.927 11.0208 7.927 10.845 8.10278ZM13.2455 14.7553C12.8911 15.1097 12.2742 15.1097 11.9198 14.7553C11.7426 14.5781 11.6451 14.3428 11.6451 14.0925C11.6451 13.8422 11.7426 13.6068 11.9198 13.4297L12.5826 12.7668L13.2455 13.4297C13.4226 13.6068 13.5201 13.8422 13.5201 14.0925C13.5201 14.3428 13.4226 14.5781 13.2455 14.7553ZM13.0378 11.8959L12.914 11.7722C12.7383 11.5964 12.427 11.5964 12.2512 11.7722L11.257 12.7668C11.1783 12.8456 11.1103 12.9318 11.048 13.0209C11.033 13.0425 11.0184 13.0636 11.0044 13.0856C10.9467 13.1761 10.8947 13.2693 10.8534 13.3678C10.8492 13.3776 10.8464 13.3884 10.8426 13.3987C10.8187 13.4587 10.7958 13.5192 10.7784 13.5815C10.4297 13.5061 10.1095 13.3326 9.85124 13.0743C9.49639 12.7204 9.30139 12.2493 9.30139 11.7487C9.30139 11.2481 9.49639 10.777 9.85077 10.4226L11.1764 9.097L12.502 10.4226C12.8967 10.8173 13.0833 11.3587 13.0378 11.8959Z" fill="white"/>
<path d="M20.5514 16.905H19.6139V17.8425H20.5514V16.905Z" fill="white"/>
<path d="M21.4889 15.9675H20.5514V16.905H21.4889V15.9675Z" fill="white"/>
<path d="M22.4264 16.905H21.4889V17.8425H22.4264V16.905Z" fill="white"/>
<path d="M23.3639 15.9675H22.4264V16.905H23.3639V15.9675Z" fill="white"/>
<path d="M24.3014 16.905H23.3639V17.8425H24.3014V16.905Z" fill="white"/>
<path d="M25.2389 15.9675H24.3014V16.905H25.2389V15.9675Z" fill="white"/>
<path d="M26.1764 16.905H25.2389V17.8425H26.1764V16.905Z" fill="white"/>
<path d="M27.1139 15.9675H26.1764V16.905H27.1139V15.9675Z" fill="white"/>
<path d="M28.0514 16.905H27.1139V17.8425H28.0514V16.905Z" fill="white"/>
<path d="M28.9889 15.9675H28.0514V16.905H28.9889V15.9675Z" fill="white"/>
<path d="M16.9148 29.0541C16.6101 29.0766 16.3026 29.0892 15.9928 29.092L16.0012 30.0295C16.3275 30.0267 16.6584 30.0131 16.9847 29.9888L16.9148 29.0541Z" fill="white"/>
<path d="M15.0694 29.0705C14.76 29.0531 14.4535 29.0259 14.1497 28.9894L14.0372 29.9198C14.3611 29.9592 14.6916 29.9883 15.0174 30.0066L15.0694 29.0705Z" fill="white"/>
<path d="M18.742 28.7981C18.442 28.8604 18.1392 28.9129 17.8326 28.9561L17.9634 29.8842C18.2883 29.8383 18.615 29.7815 18.9323 29.7154L18.742 28.7981Z" fill="white"/>
<path d="M20.8284 29.1891L20.5181 28.3041C20.2289 28.4058 19.935 28.4977 19.6378 28.5806L19.8895 29.4839C20.2064 29.3953 20.5223 29.2964 20.8284 29.1891Z" fill="white"/>
<path d="M21.3783 27.9699L21.7463 28.8324C22.0486 28.7034 22.3486 28.5633 22.6383 28.4161L22.2145 27.5803C21.9427 27.7181 21.6614 27.8494 21.3783 27.9699Z" fill="white"/>
<path d="M13.2375 28.8483C12.9338 28.7907 12.6333 28.7236 12.3361 28.6472L12.1027 29.5552C12.42 29.6367 12.743 29.7089 13.0636 29.7694L13.2375 28.8483Z" fill="white"/>
<path d="M9.74197 27.6943C9.464 27.5597 9.19166 27.4163 8.92447 27.2649L8.46228 28.08C8.74822 28.2427 9.04166 28.3965 9.33369 28.538L9.74197 27.6943Z" fill="white"/>
<path d="M11.4516 28.3865C11.16 28.2904 10.8689 28.1831 10.5858 28.0687L10.2333 28.9378C10.5356 29.0601 10.8464 29.1745 11.1577 29.2772L11.4516 28.3865Z" fill="white"/>
<path d="M15.735 0.968018L15.7266 0.0305176C15.4004 0.0333301 15.0694 0.0469238 14.7432 0.0712988L14.8125 1.00599C15.1177 0.983486 15.4247 0.97083 15.735 0.968018Z" fill="white"/>
<path d="M12.09 1.47945L11.8383 0.576172C11.5214 0.664297 11.2055 0.763672 10.8994 0.871016L11.2097 1.75602C11.4989 1.6543 11.7929 1.56242 12.09 1.47945Z" fill="white"/>
<path d="M24.9094 3.06334C24.6506 2.86741 24.3801 2.67569 24.105 2.49475L23.5894 3.27803C23.8472 3.44772 24.1008 3.62678 24.3431 3.81053L24.9094 3.06334Z" fill="white"/>
<path d="M10.3495 2.09016L9.98151 1.22766C9.67917 1.35657 9.37917 1.49672 9.08948 1.64391L9.51323 2.47969C9.7851 2.34188 10.0664 2.21063 10.3495 2.09016Z" fill="white"/>
<path d="M13.8956 1.10391L13.7648 0.175781C13.44 0.221719 13.1132 0.278438 12.7959 0.344531L12.9862 1.26234C13.2857 1.2 13.5886 1.14703 13.8956 1.10391Z" fill="white"/>
<path d="M30.7261 12.9901C30.6816 12.6648 30.6263 12.3381 30.5611 12.0198L29.6428 12.2068C29.7033 12.5054 29.7553 12.8115 29.7966 13.1162L30.7261 12.9901Z" fill="white"/>
<path d="M29.6901 9.20341C29.564 8.90529 29.4257 8.60482 29.2781 8.31091L28.4404 8.73091C28.5778 9.00466 28.7062 9.28404 28.8257 9.56763L29.6901 9.20341Z" fill="white"/>
<path d="M25.0608 4.39125C25.2933 4.59281 25.5197 4.8014 25.7386 5.01796L26.3967 4.35046C26.1633 4.12031 25.92 3.89578 25.6739 3.6825L25.0608 4.39125Z" fill="white"/>
<path d="M23.265 1.98006C22.9786 1.81741 22.6852 1.66366 22.3931 1.52209L21.9849 2.36584C22.2624 2.50038 22.5347 2.64381 22.8028 2.79569L23.265 1.98006Z" fill="white"/>
<path d="M27.7045 5.81959C27.5052 5.56412 27.2934 5.31006 27.0745 5.06396L26.3741 5.68693C26.5785 5.91662 26.7754 6.15334 26.9648 6.39615L27.7045 5.81959Z" fill="white"/>
<path d="M28.8085 7.44608C28.6425 7.16437 28.4663 6.88499 28.283 6.61499L27.5077 7.1414C27.6797 7.39546 27.8443 7.65561 28.0003 7.9214L28.8085 7.44608Z" fill="white"/>
<path d="M21.4927 1.12219C21.1884 0.998911 20.8772 0.884536 20.5673 0.782349L20.2734 1.6725C20.5636 1.76813 20.8552 1.875 21.1411 1.99079L21.4927 1.12219Z" fill="white"/>
<path d="M19.6228 0.504868C19.305 0.423306 18.982 0.351118 18.6623 0.290649L18.4884 1.21174C18.7922 1.2694 19.0926 1.33643 19.3893 1.41237L19.6228 0.504868Z" fill="white"/>
<path d="M17.6897 0.140186C17.3662 0.100811 17.0362 0.071748 16.71 0.0534668L16.658 0.989561C16.9673 1.0069 17.2734 1.03409 17.5772 1.07065L17.6897 0.140186Z" fill="white"/>
<path d="M30.3338 11.062C30.248 10.7494 30.15 10.4334 30.0427 10.1222L29.1562 10.4283C29.2566 10.718 29.3475 11.0119 29.4291 11.3095L30.3338 11.062Z" fill="white"/>
</g>
<defs>
<clipPath id="clip0_27_142">
<rect width="30" height="30" fill="white" transform="translate(0.863892 0.0300293)"/>
</clipPath>
</defs>
</svg>
