<svg width="32" height="32" viewBox="0 0 32 32" fill="none" xmlns="http://www.w3.org/2000/svg">
<path d="M28.8216 21.1081L25.9734 16.1965C25.944 16.137 25.9026 16.0842 25.8519 16.0414C25.8011 15.9986 25.7422 15.9666 25.6786 15.9476C25.615 15.9285 25.5481 15.9227 25.4822 15.9305C25.4163 15.9383 25.3527 15.9597 25.2953 15.9931L22.1081 17.8337C22.053 17.8658 22.0048 17.9084 21.9662 17.9591C21.9276 18.0098 21.8994 18.0677 21.8832 18.1293C21.867 18.191 21.8631 18.2552 21.8718 18.3184C21.8805 18.3815 21.9015 18.4423 21.9338 18.4973L24.3556 22.7065H20.8536L21.7061 22.0042C21.805 21.9201 21.8665 21.8001 21.8769 21.6706C21.8874 21.5412 21.8459 21.4129 21.7618 21.314C21.6777 21.215 21.5577 21.1536 21.4282 21.1432C21.2988 21.1327 21.1705 21.1741 21.0716 21.2583L16.9398 24.6489C16.885 24.6943 16.8408 24.7513 16.8105 24.8158C16.7802 24.8803 16.7645 24.9506 16.7645 25.0219C16.7645 25.0931 16.7802 25.1634 16.8105 25.2279C16.8408 25.2924 16.885 25.3494 16.9398 25.3948L21.0716 28.7854C21.1713 28.8578 21.295 28.8894 21.4172 28.8738C21.5395 28.8582 21.6512 28.7966 21.7296 28.7015C21.808 28.6064 21.8472 28.485 21.8392 28.362C21.8313 28.239 21.7767 28.1237 21.6867 28.0395L20.8342 27.3372H25.1936C25.9135 27.3366 26.6211 27.1497 27.2473 26.7947H27.2813H27.3103C28.2589 26.2355 28.9493 25.3255 29.2321 24.2613C29.5149 23.1971 29.3674 22.0644 28.8216 21.1081ZM25.2178 26.3878H19.6766L18.0297 25.0364L19.6766 23.6801H24.9466L26.3997 26.1747C26.0181 26.3212 25.612 26.3935 25.2033 26.3878H25.2178ZM27.9836 24.7894C27.7864 25.1345 27.525 25.4386 27.2134 25.6854L23.0091 18.4295L25.3583 17.0733L27.9642 21.5925C28.2455 22.078 28.3941 22.6291 28.3949 23.1903C28.3958 23.7514 28.2489 24.3029 27.9691 24.7894H27.9836Z" fill="white"/>
<path d="M13.0116 23.0214C11.8491 23.0214 9.27706 23.0214 8.09034 23.0214L9.84377 19.9795L10.0278 21.0694C10.049 21.1978 10.1204 21.3126 10.2262 21.3885C10.332 21.4643 10.4637 21.495 10.5921 21.4738C10.7206 21.4526 10.8354 21.3813 10.9112 21.2754C10.9871 21.1696 11.0178 21.038 10.9966 20.9095C10.9966 20.8562 10.1199 15.6347 10.1199 15.6347C10.1096 15.5606 10.0824 15.4899 10.0403 15.4281C9.99815 15.3663 9.9423 15.3151 9.87708 15.2785C9.81187 15.2419 9.73906 15.2209 9.66438 15.2172C9.58969 15.2134 9.51515 15.227 9.44659 15.2569L4.44784 17.1362C4.33469 17.1861 4.24492 17.2774 4.19692 17.3914C4.14893 17.5054 4.14634 17.6334 4.18969 17.7492C4.23305 17.865 4.31906 17.9599 4.4301 18.0143C4.54114 18.0688 4.66879 18.0787 4.7869 18.042L5.81862 17.6545L3.63409 21.4181C3.27757 22.0438 3.09057 22.7517 3.09159 23.4719C3.08682 23.4926 3.08682 23.5141 3.09159 23.5348C3.10677 24.6309 3.55092 25.6774 4.32876 26.4498C5.10661 27.2222 6.15619 27.6591 7.25237 27.6666H12.9244C12.9904 27.6705 13.0565 27.6609 13.1187 27.6384C13.1809 27.6158 13.2377 27.5808 13.2859 27.5354C13.334 27.49 13.3723 27.4353 13.3984 27.3745C13.4245 27.3138 13.438 27.2483 13.4378 27.1822V23.5009C13.4375 23.3828 13.394 23.2688 13.3155 23.1805C13.237 23.0922 13.1289 23.0356 13.0116 23.0214ZM7.24752 17.1217L9.24315 16.3516L9.59674 18.4586L6.97143 23.002H4.11846C4.15237 22.6484 7.24752 17.1217 7.24752 17.1217ZM12.4691 26.6978H7.25721C6.49777 26.6898 5.76572 26.413 5.19109 25.9164C4.61645 25.4198 4.23641 24.7356 4.11846 23.9853C6.48706 23.9853 10.1296 23.9853 12.4933 23.9853L12.4691 26.6978Z" fill="white"/>
<path d="M21.3477 14.3559C21.4147 14.3812 21.4864 14.3914 21.5578 14.3857C21.6291 14.3799 21.6983 14.3585 21.7604 14.3228C21.8225 14.2871 21.8759 14.2382 21.9167 14.1794C21.9576 14.1206 21.985 14.0535 21.9968 13.9829C21.9968 13.9587 22.8735 8.70322 22.8735 8.70322C22.884 8.63962 22.8819 8.57456 22.8672 8.51178C22.8526 8.449 22.8257 8.38971 22.7882 8.33731C22.7506 8.28491 22.7031 8.24042 22.6483 8.20638C22.5936 8.17235 22.5327 8.14942 22.4691 8.13893C22.4054 8.12843 22.3404 8.13057 22.2776 8.14521C22.2148 8.15986 22.1555 8.18673 22.1031 8.22429C22.0507 8.26184 22.0063 8.30935 21.9722 8.3641C21.9382 8.41885 21.9153 8.47977 21.9048 8.54338L21.7207 9.63322L19.5507 5.86963C19.1928 5.24962 18.6826 4.73115 18.0685 4.36323H18.0394H18.0104C17.0571 3.82726 15.9322 3.6848 14.8754 3.96619C13.8186 4.24758 12.9134 4.93058 12.3529 5.86963L9.51445 10.7812C9.47792 10.8365 9.45315 10.8988 9.44166 10.9641C9.43017 11.0294 9.4322 11.0963 9.44764 11.1608C9.46308 11.2253 9.49159 11.2859 9.53141 11.3389C9.57123 11.3919 9.62151 11.4362 9.67913 11.469L12.8663 13.3096C12.9775 13.3728 13.1092 13.3894 13.2326 13.3558C13.356 13.3222 13.4612 13.2412 13.5251 13.1304L15.9469 8.92119L17.7004 11.9582L16.6687 11.5707C16.5515 11.5382 16.4264 11.5508 16.3182 11.6062C16.21 11.6616 16.1266 11.7557 16.0845 11.8697C16.0424 11.9838 16.0447 12.1095 16.091 12.2219C16.1373 12.3343 16.2242 12.4252 16.3344 12.4765L21.3477 14.3559ZM12.9293 12.2295L10.5801 10.8732L13.186 6.35401C13.5708 5.6955 14.1771 5.19517 14.8966 4.9423C15.6162 4.68944 16.4022 4.70051 17.1143 4.97354L12.9293 12.2295ZM16.5185 7.95244L17.9716 5.45791C18.2768 5.70494 21.5027 11.1396 21.5027 11.1396L21.1491 13.2418L19.1341 12.4765L16.5185 7.95244Z" fill="white"/>
</svg>
